<svg id="Capa_1" enable-background="new 0 0 507.57 507.57" height="512" viewBox="0 0 507.57 507.57" width="512" xmlns="http://www.w3.org/2000/svg"><circle id="XMLID_96_" cx="253.815" cy="253.13" fill="#636978" r="149.969"/><path id="XMLID_1885_" d="m253.815 103.161c-.01 0-.021 0-.031 0v299.937h.031c82.693 0 149.969-67.276 149.969-149.969s-67.275-149.968-149.969-149.968z" fill="#414952"/><path id="XMLID_92_" d="m444.737 498.775v-30c18.102 0 32.829-14.727 32.829-32.829v-182.16h30v182.161c0 34.644-28.184 62.828-62.829 62.828z" fill="#7e8596"/><path id="XMLID_164_" d="m433.236 74.334c-47.933-47.935-111.663-74.334-179.452-74.334s-131.52 26.399-179.452 74.334c-47.931 47.934-74.328 111.666-74.328 179.456 0 67.786 26.397 131.515 74.328 179.448 47.933 47.934 111.663 74.332 179.452 74.332s131.52-26.398 179.452-74.332c47.931-47.933 74.328-111.662 74.328-179.448 0-67.79-26.397-131.522-74.328-179.456zm-290.742 88.736c27.25 8.86 42.16 38.13 33.31 65.38-8.86 27.25-38.12 42.16-65.38 33.31-27.25-8.86-42.16-38.13-33.3-65.38 8.85-27.25 38.12-42.16 65.37-33.31zm-9.37 168.53c16.84-23.18 49.28-28.32 72.46-11.48 23.19 16.84 28.32 49.29 11.48 72.47s-49.28 28.32-72.46 11.48c-23.19-16.85-28.32-49.29-11.48-72.47zm68.78-211.69c0-28.65 23.23-51.88 51.88-51.88s51.88 23.23 51.88 51.88-23.23 51.88-51.88 51.88-51.88-23.23-51.88-51.88zm172.54 211.69c16.84 23.18 11.71 55.62-11.48 72.47-23.18 16.84-55.62 11.7-72.46-11.48s-11.71-55.63 11.48-72.47c23.18-16.84 55.62-11.7 72.46 11.48zm-42.68-103.15c-8.85-27.25 6.06-56.52 33.31-65.38 27.25-8.85 56.52 6.06 65.37 33.31 8.86 27.25-6.05 56.52-33.3 65.38-27.26 8.85-56.52-6.06-65.38-33.31z" fill="#414952"/><path id="XMLID_1865_" d="m433.236 74.334c-47.933-47.935-111.663-74.334-179.452-74.334v68.03c28.65 0 51.88 23.23 51.88 51.88s-23.23 51.88-51.88 51.88v335.78c67.789 0 131.52-26.398 179.452-74.332 47.931-47.933 74.328-111.662 74.328-179.448 0-67.79-26.397-131.522-74.328-179.456zm-70.272 329.736c-23.18 16.84-55.62 11.7-72.46-11.48s-11.71-55.63 11.48-72.47c23.18-16.84 55.62-11.7 72.46 11.48s11.71 55.62-11.48 72.47zm34.18-142.31c-27.26 8.85-56.52-6.06-65.38-33.31-8.85-27.25 6.06-56.52 33.31-65.38 27.25-8.85 56.52 6.06 65.37 33.31 8.86 27.25-6.05 56.52-33.3 65.38z" fill="#23272b"/><path id="XMLID_94_" d="m238.784 239.322h30v28.927h-30z" fill="#afb4c8"/><path id="XMLID_1852_" d="m253.784 239.322h15v28.927h-15z" fill="#7e8596"/></svg>